<?xml version="1.0" encoding="utf-8"?>
 <!DOCTYPE svg PUBLIC "-//W3C//DTD SVG 20010904//EN" "http://www.w3.org/TR/2001/REC-SVG-20010904/DTD/svg10.dtd">
<svg class="Qr-item-svg" width="100%" height="100%" viewBox="-5 -5 35 35" fill="white" xmlns="http://www.w3.org/2000/svg" xmlns:xlink="http://www.w3.org/1999/xlink"><circle cx="8.5" cy="0.5" r="0.37821716392318244" fill="#8ED1FC"></circle><circle cx="13" cy="0.5" r="0.5121720679012346" fill="#FFFFFF" stroke="#8ED1FC" stroke-width="0.39837568587105626"></circle><circle cx="15" cy="0.5" r="0.5008839163237311" fill="#FFFFFF" stroke="#8ED1FC" stroke-width="0.36549742798353907"></circle><circle cx="16.5" cy="0.5" r="0.37519075788751716" fill="#8ED1FC"></circle><circle r="0.4520694015775034" fill="#8ED1FC" cx="9.5" cy="1.5"></circle><circle cx="11.5" cy="2" r="0.5075465106310014" fill="#FFFFFF" stroke="#8ED1FC" stroke-width="0.38052914951989025"></circle><circle cx="8.5" cy="3" r="0.47745991941015087" fill="#FFFFFF" stroke="#8ED1FC" stroke-width="0.3922211934156379"></circle><circle fill="#8ED1FC" cx="13.5" cy="2.5" r="0.4802190500685871"></circle><circle fill="#8ED1FC" cx="16.5" cy="2.5" r="0.32021497770919066"></circle><circle cx="3.5" cy="3.5" r="1.5" fill="#0693E3"></circle><circle r="3" fill="none" cx="3.5" cy="3.5" stroke-width="1" stroke="#0693E3"></circle><circle cx="11.5" cy="3.5" r="0.4524712791495199" fill="#8ED1FC"></circle><circle fill="#8ED1FC" cx="14.5" cy="3.5" r="0.417497213648834"></circle><circle fill="#0693E3" cx="21.5" cy="3.5" r="1.5"></circle><circle cx="21.5" cy="3.5" r="3" fill="none" stroke-width="1" stroke="#0693E3"></circle><circle r="0.47847522290809325" fill="#FFFFFF" cx="15.5" cy="5" stroke="#8ED1FC" stroke-width="0.3868914609053498"></circle><circle r="0.2870670438957476" fill="#8ED1FC" cx="16.5" cy="4.5"></circle><circle cx="10.5" cy="6" r="0.48768111282578874" fill="#FFFFFF" stroke="#8ED1FC" stroke-width="0.36607716049382716"></circle><circle cx="12.5" cy="6" r="0.49015324931412896" fill="#FFFFFF" stroke="#8ED1FC" stroke-width="0.3607503429355281"></circle><circle r="0.5092406121399177" fill="#FFFFFF" cx="14.5" cy="6" stroke="#8ED1FC" stroke-width="0.38599965706447187"></circle><circle cx="8.5" cy="6.5" r="0.44539501886145405" fill="#8ED1FC"></circle><circle cx="16.5" cy="7" r="0.5093801440329219" fill="#FFFFFF" stroke="#8ED1FC" stroke-width="0.38422856652949244"></circle><circle cx="9.5" cy="7.5" r="0.4896883573388203" fill="#8ED1FC"></circle><circle r="0.3967249657064472" fill="#8ED1FC" cx="11.5" cy="7.5"></circle><circle cx="13.5" cy="7.5" r="0.30570558984910834" fill="#8ED1FC"></circle><circle r="0.5115586419753086" fill="#FFFFFF" cx="2.5" cy="9" stroke="#8ED1FC" stroke-width="0.39399605624142664"></circle><circle r="0.48221493484224964" fill="#FFFFFF" stroke="#8ED1FC" stroke-width="0.3733400205761317" cx="4.5" cy="9"></circle><circle r="0.47998028120713304" fill="#FFFFFF" cx="6" cy="8.5" stroke="#8ED1FC" stroke-width="0.3857292524005487"></circle><circle r="0.520286779835391" fill="#FFFFFF" cx="7.5" cy="9" stroke="#8ED1FC" stroke-width="0.37832424554183813"></circle><circle r="0.4834081361454047" fill="#FFFFFF" stroke="#8ED1FC" stroke-width="0.37171227709190674" cx="12.5" cy="9"></circle><circle r="0.49265260631001373" fill="#FFFFFF" cx="15" cy="8.5" stroke="#8ED1FC" stroke-width="0.397965877914952"></circle><circle cx="17" cy="8.5" r="0.48635416666666664" fill="#FFFFFF" stroke="#8ED1FC" stroke-width="0.37253617969821673"></circle><circle cx="19.5" cy="9" r="0.5199427726337449" fill="#FFFFFF" stroke="#8ED1FC" stroke-width="0.37863545953360767"></circle><circle r="0.2601337448559671" fill="#8ED1FC" cx="24.5" cy="8.5"></circle><circle r="0.49501414609053496" fill="#FFFFFF" cx="9.5" cy="10" stroke="#8ED1FC" stroke-width="0.36971107681755827"></circle><circle r="0.506983024691358" fill="#FFFFFF" cx="15.5" cy="10" stroke="#8ED1FC" stroke-width="0.38774296982167356"></circle><circle r="0.48592828360768175" fill="#FFFFFF" stroke="#8ED1FC" stroke-width="0.36362551440329216" cx="3" cy="10.5"></circle><circle cx="4.5" cy="11" r="0.4867028892318244" fill="#FFFFFF" stroke="#8ED1FC" stroke-width="0.3673110425240055"></circle><circle r="0.48622513717421123" fill="#FFFFFF" stroke="#8ED1FC" stroke-width="0.37245353223593963" cx="7" cy="10.5"></circle><circle r="0.5224224108367627" fill="#FFFFFF" cx="11.5" cy="11" stroke="#8ED1FC" stroke-width="0.3891274005486969"></circle><circle cx="15" cy="10.5" r="0.5174901406035666" fill="#FFFFFF" stroke="#8ED1FC" stroke-width="0.36909104938271603"></circle><circle cx="18" cy="10.5" r="0.515121956447188" fill="#FFFFFF" stroke="#8ED1FC" stroke-width="0.38790637860082305"></circle><circle r="0.47988383058984907" fill="#FFFFFF" stroke="#8ED1FC" stroke-width="0.388059499314129" cx="24" cy="11.5"></circle><circle cx="0.5" cy="12.5" r="0.4365997942386831" fill="#8ED1FC"></circle><circle r="0.48976637517146776" fill="#FFFFFF" cx="3" cy="12.5" stroke="#8ED1FC" stroke-width="0.36209722222222224"></circle><circle cx="7" cy="12.5" r="0.494636488340192" fill="#FFFFFF" stroke="#8ED1FC" stroke-width="0.39963528806584364"></circle><circle r="0.364158950617284" fill="#8ED1FC" cx="10.5" cy="12.5"></circle><circle cx="13.5" cy="12.5" r="0.36890753600823045" fill="#8ED1FC"></circle><circle cx="16" cy="12.5" r="0.47815693587105623" fill="#FFFFFF" stroke="#8ED1FC" stroke-width="0.3785812757201646"></circle><circle r="0.5196544924554184" fill="#FFFFFF" cx="18.5" cy="13" stroke="#8ED1FC" stroke-width="0.3936003086419753"></circle><circle cx="24.5" cy="13" r="0.5231357167352538" fill="#FFFFFF" stroke="#8ED1FC" stroke-width="0.37669393004115226"></circle><circle cx="3.5" cy="14" r="0.5020492541152264" fill="#FFFFFF" stroke="#8ED1FC" stroke-width="0.3965428669410151"></circle><circle r="0.33536415466392316" fill="#8ED1FC" cx="4.5" cy="13.5"></circle><circle r="0.49537594307270233" fill="#FFFFFF" stroke="#8ED1FC" stroke-width="0.38177006172839506" cx="8.5" cy="14"></circle><circle cx="12.5" cy="14" r="0.5220231052812072" fill="#FFFFFF" stroke="#8ED1FC" stroke-width="0.3779746227709191"></circle><circle cx="14.5" cy="13.5" r="0.36119898834019204" fill="#8ED1FC"></circle><circle cx="17" cy="13.5" r="0.4932561728395062" fill="#FFFFFF" stroke="#8ED1FC" stroke-width="0.36898371056241425"></circle><circle cx="1" cy="14.5" r="0.5018220593278464" fill="#FFFFFF" stroke="#8ED1FC" stroke-width="0.3860318930041152"></circle><circle cx="6.5" cy="14.5" r="0.31931048525377226" fill="#8ED1FC"></circle><circle r="0.48325810185185186" fill="#FFFFFF" cx="10" cy="14.5" stroke="#8ED1FC" stroke-width="0.3753371056241427"></circle><circle r="0.4985903206447188" fill="#FFFFFF" cx="12" cy="14.5" stroke="#8ED1FC" stroke-width="0.37931069958847735"></circle><circle r="0.38103995198902607" fill="#8ED1FC" cx="18.5" cy="14.5"></circle><circle cx="20.5" cy="15" r="0.4948066700960219" fill="#FFFFFF" stroke="#8ED1FC" stroke-width="0.38592369684499317"></circle><circle cx="23.5" cy="15" r="0.48431884430727024" fill="#FFFFFF" stroke="#8ED1FC" stroke-width="0.3881095679012346"></circle><circle cx="24.5" cy="14.5" r="0.34714934842249656" fill="#8ED1FC"></circle><circle cx="1.5" cy="16" r="0.502783993484225" fill="#FFFFFF" stroke="#8ED1FC" stroke-width="0.3835915637860082"></circle><circle cx="2.5" cy="15.5" r="0.45992262517146776" fill="#8ED1FC"></circle><circle cx="5.5" cy="16" r="0.48363340192043897" fill="#FFFFFF" stroke="#8ED1FC" stroke-width="0.36786985596707816"></circle><circle cx="8.5" cy="15.5" r="0.3635020147462277" fill="#8ED1FC"></circle><circle cx="17.5" cy="16" r="0.49493462791495196" fill="#FFFFFF" stroke="#8ED1FC" stroke-width="0.37803223593964336"></circle><circle cx="23" cy="15.5" r="0.5056738683127572" fill="#FFFFFF" stroke="#8ED1FC" stroke-width="0.3665721879286694"></circle><circle cx="1" cy="16.5" r="0.4894939557613169" fill="#FFFFFF" stroke="#8ED1FC" stroke-width="0.37507887517146776"></circle><circle cx="5" cy="16.5" r="0.49633852023319613" fill="#FFFFFF" stroke="#8ED1FC" stroke-width="0.38411419753086423"></circle><circle r="0.4932551011659808" fill="#FFFFFF" cx="7" cy="16.5" stroke="#8ED1FC" stroke-width="0.3610096021947874"></circle><circle cx="16.5" cy="17" r="0.5013946759259259" fill="#FFFFFF" stroke="#8ED1FC" stroke-width="0.365957475994513"></circle><circle cx="19" cy="16.5" r="0.4986713391632373" fill="#FFFFFF" stroke="#8ED1FC" stroke-width="0.38215329218106997"></circle><circle r="0.4952792781207133" fill="#FFFFFF" stroke="#8ED1FC" stroke-width="0.38250548696844994" cx="20.5" cy="17"></circle><circle cx="23.5" cy="16.5" r="0.3290498542524005" fill="#8ED1FC"></circle><circle cx="10" cy="17.5" r="0.5205969221536352" fill="#FFFFFF" stroke="#8ED1FC" stroke-width="0.366031207133059"></circle><circle r="0.3908832733196159" fill="#8ED1FC" cx="24.5" cy="17.5"></circle><circle r="0.5066310871056241" fill="#FFFFFF" cx="8.5" cy="19" stroke="#8ED1FC" stroke-width="0.36904578189300413"></circle><circle r="0.3403142146776406" fill="#8ED1FC" cx="18.5" cy="18.5"></circle><circle cx="10" cy="19.5" r="0.5037971536351166" fill="#FFFFFF" stroke="#8ED1FC" stroke-width="0.3623136145404664"></circle><circle r="0.5059636488340192" fill="#FFFFFF" cx="14" cy="19.5" stroke="#8ED1FC" stroke-width="0.3627710905349794"></circle><circle cx="20.5" cy="20" r="0.47952932098765433" fill="#FFFFFF" stroke="#8ED1FC" stroke-width="0.39022445130315503"></circle><circle fill="#FFFFFF" cx="8.5" cy="21" r="0.5228174296982168" stroke="#8ED1FC" stroke-width="0.3683837448559671"></circle><circle cx="10.5" cy="21" r="0.5087594307270233" fill="#FFFFFF" stroke="#8ED1FC" stroke-width="0.365625"></circle><circle r="0.43126178840877916" fill="#8ED1FC" cx="12.5" cy="20.5"></circle><circle r="0.49766032235939645" fill="#FFFFFF" stroke="#8ED1FC" stroke-width="0.3793794581618656" cx="17.5" cy="21"></circle><circle r="0.495991512345679" fill="#FFFFFF" cx="19.5" cy="21" stroke="#8ED1FC" stroke-width="0.36209790809327846"></circle><circle cx="21.5" cy="21" r="0.47637002743484225" fill="#FFFFFF" stroke="#8ED1FC" stroke-width="0.36255298353909465"></circle><circle cx="3.5" cy="21.5" r="1.5" fill="#0693E3"></circle><circle r="3" fill="none" stroke="#0693E3" stroke-width="1" cx="3.5" cy="21.5"></circle><circle cx="14" cy="21.5" r="0.48391010802469137" fill="#FFFFFF" stroke="#8ED1FC" stroke-width="0.3867846364883402"></circle><circle cx="8.5" cy="22.5" r="0.4164351851851852" fill="#8ED1FC"></circle><circle cx="12.5" cy="23" r="0.5230049725651578" fill="#FFFFFF" stroke="#8ED1FC" stroke-width="0.36385270919067214"></circle><circle cx="16.5" cy="22.5" r="0.28311149691358023" fill="#8ED1FC"></circle><circle r="0.493099494170096" fill="#FFFFFF" stroke="#8ED1FC" stroke-width="0.3631690672153635" cx="24.5" cy="23"></circle><circle cx="10" cy="23.5" r="0.4799337705761317" fill="#FFFFFF" stroke="#8ED1FC" stroke-width="0.39965294924554184"></circle><circle fill="#FFFFFF" cx="14" cy="23.5" r="0.5164158950617284" stroke="#8ED1FC" stroke-width="0.3758448216735254"></circle><circle r="0.48493848593964334" fill="#FFFFFF" stroke="#8ED1FC" stroke-width="0.3987390260631002" cx="18.5" cy="24"></circle><circle cx="11" cy="24.5" r="0.5116272290809328" fill="#FFFFFF" stroke="#8ED1FC" stroke-width="0.38433899176954733"></circle><circle r="0.40884559327846365" fill="#8ED1FC" cx="12.5" cy="24.5"></circle><circle r="0.4827010459533608" fill="#FFFFFF" cx="15" cy="24.5" stroke="#8ED1FC" stroke-width="0.39039557613168724"></circle><circle r="0.3915594993141289" fill="#8ED1FC" cx="19.5" cy="24.5"></circle><circle cx="22" cy="24.5" r="0.5092562585733882" fill="#FFFFFF" stroke="#8ED1FC" stroke-width="0.38242163923182443"></circle><circle r="0.5151491769547325" fill="#FFFFFF" stroke="#8ED1FC" stroke-width="0.39044873113854595" cx="24" cy="24.5"></circle><circle r="0.7071067811865476" fill="#FFFFFF" stroke="#8ED1FC" stroke-width="0.462125" cx="9" cy="4"></circle><circle cx="9" cy="5" r="0.7071067811865476" fill="#FFFFFF" stroke="#8ED1FC" stroke-width="0.5399675925925926"></circle><circle cx="12.5" cy="5.5" r="1" fill="#FFFFFF" stroke="#8ED1FC" stroke-width="0.5320671296296295"></circle><circle cx="12.5" cy="5.5" r="0.262434627914952" fill="#8ED1FC"></circle><circle cx="3.5" cy="9.5" r="1" fill="#FFFFFF" stroke="#8ED1FC" stroke-width="0.3686238425925926"></circle><circle r="1" fill="#FFFFFF" cx="20.5" cy="9.5" stroke="#8ED1FC" stroke-width="0.3803564814814815"></circle><circle r="0.7071067811865476" fill="#FFFFFF" stroke="#8ED1FC" stroke-width="0.443818287037037" cx="22" cy="9"></circle><circle cx="19" cy="10" r="0.7071067811865476" fill="#FFFFFF" stroke="#8ED1FC" stroke-width="0.5321851851851851"></circle><circle r="0.7071067811865476" fill="#FFFFFF" stroke="#8ED1FC" stroke-width="0.492650462962963" cx="1" cy="11"></circle><circle cx="19" cy="11" r="0.7071067811865476" fill="#FFFFFF" stroke="#8ED1FC" stroke-width="0.3683414351851852"></circle><circle cx="20" cy="11" r="0.7071067811865476" fill="#FFFFFF" stroke="#8ED1FC" stroke-width="0.3307453703703704"></circle><circle r="0.7071067811865476" fill="#FFFFFF" cx="21" cy="13" stroke="#8ED1FC" stroke-width="0.3445960648148148"></circle><circle cx="10.5" cy="16.5" r="1" fill="#FFFFFF" stroke="#8ED1FC" stroke-width="0.5838749999999999"></circle><circle cx="15" cy="16" r="0.7071067811865476" fill="#FFFFFF" stroke="#8ED1FC" stroke-width="0.512630787037037"></circle><circle r="0.7071067811865476" fill="#FFFFFF" cx="11" cy="18" stroke="#8ED1FC" stroke-width="0.4967951388888889"></circle><circle cx="12" cy="18" r="0.7071067811865476" fill="#FFFFFF" stroke="#8ED1FC" stroke-width="0.5986435185185185"></circle><circle r="0.7071067811865476" fill="#FFFFFF" cx="21" cy="18" stroke="#8ED1FC" stroke-width="0.5270092592592592"></circle><circle cx="15.5" cy="19.5" r="1" fill="#FFFFFF" stroke="#8ED1FC" stroke-width="0.5130625"></circle><circle cx="15.5" cy="19.5" r="0.34386038237311384" fill="#8ED1FC"></circle><circle r="0.7071067811865476" fill="#FFFFFF" stroke="#8ED1FC" stroke-width="0.37944097222222223" cx="16" cy="19"></circle><circle r="0.7071067811865476" fill="#FFFFFF" stroke="#8ED1FC" stroke-width="0.4809699074074074" cx="15" cy="20"></circle><circle cx="16" cy="20" r="0.7071067811865476" fill="#FFFFFF" stroke="#8ED1FC" stroke-width="0.5581655092592592"></circle><circle fill="#FFFFFF" cx="24" cy="20" r="0.7071067811865476" stroke="#8ED1FC" stroke-width="0.5039351851851852"></circle><circle cx="18.5" cy="21.5" r="1" fill="#FFFFFF" stroke="#8ED1FC" stroke-width="0.5538506944444445"></circle><circle cx="24" cy="21" r="0.7071067811865476" fill="#FFFFFF" stroke="#8ED1FC" stroke-width="0.4833599537037037"></circle><circle r="1" fill="#FFFFFF" cx="21.5" cy="22.5" stroke="#8ED1FC" stroke-width="0.4224953703703704"></circle><circle r="0.3763856738683128" fill="#8ED1FC" cx="21.5" cy="22.5"></circle><circle cx="22" cy="22" r="0.7071067811865476" fill="#FFFFFF" stroke="#8ED1FC" stroke-width="0.34095717592592595"></circle><circle cx="12.5" cy="3.5" r="0.45133487654320986" fill="#FFFFFF" stroke="#8ED1FC" stroke-width="0.3005871913580247"></circle><circle cx="12.5" cy="7.5" r="0.5981539351851852" fill="#FFFFFF" stroke="#8ED1FC" stroke-width="0.15183873456790123"></circle><circle r="0.501965663580247" fill="#FFFFFF" cx="10.5" cy="8.5" stroke="#8ED1FC" stroke-width="0.2941473765432099"></circle><circle r="0.4254591049382716" fill="#FFFFFF" cx="24.5" cy="9.5" stroke="#8ED1FC" stroke-width="0.18414583333333334"></circle><circle cx="8.5" cy="10.5" r="0.647842399691358" fill="#FFFFFF" stroke="#8ED1FC" stroke-width="0.15376543209876542"></circle><circle r="0.4329263117283951" fill="#FFFFFF" cx="21.5" cy="10.5" stroke="#8ED1FC" stroke-width="0.30613811728395063"></circle><circle r="0.4327266589506173" fill="#FFFFFF" cx="7.5" cy="11.5" stroke="#8ED1FC" stroke-width="0.26056172839506175"></circle><circle r="0.5913676697530864" fill="#FFFFFF" cx="13.5" cy="11.5" stroke="#8ED1FC" stroke-width="0.2365949074074074"></circle><circle r="0.5870418595679012" fill="#FFFFFF" cx="4.5" cy="12.5" stroke="#8ED1FC" stroke-width="0.2691064814814815"></circle><circle r="0.4330372299382716" fill="#FFFFFF" cx="0.5" cy="13.5" stroke="#8ED1FC" stroke-width="0.23145833333333332"></circle><circle cx="14.5" cy="14.5" r="0.4295630787037037" fill="#FFFFFF" stroke="#8ED1FC" stroke-width="0.30099382716049383"></circle><circle cx="8.5" cy="16.5" r="0.5477064043209876" fill="#FFFFFF" stroke="#8ED1FC" stroke-width="0.2618510802469136"></circle><circle cx="23.5" cy="17.5" r="0.4941425540123457" fill="#FFFFFF" stroke="#8ED1FC" stroke-width="0.2239537037037037"></circle><circle cx="24.5" cy="18.5" r="0.5924209104938272" fill="#FFFFFF" stroke="#8ED1FC" stroke-width="0.1535486111111111"></circle><circle cx="13.5" cy="20.5" r="0.5666213348765432" fill="#FFFFFF" stroke="#8ED1FC" stroke-width="0.24406635802469134"></circle><circle fill="#FFFFFF" stroke-width="0.3055185185185185" stroke="#8ED1FC" cx="17.5" cy="23.5" r="0.5467930169753087"></circle><circle cx="13.5" cy="24.5" r="0.6292013888888889" fill="#FFFFFF" stroke="#8ED1FC" stroke-width="0.22973225308641976"></circle><circle cx="16.5" cy="24.5" r="0.6281645447530865" fill="#FFFFFF" stroke="#8ED1FC" stroke-width="0.25478240740740743"></circle></svg>