<?xml version="1.0" encoding="utf-8"?>
 <!DOCTYPE svg PUBLIC "-//W3C//DTD SVG 20010904//EN" "http://www.w3.org/TR/2001/REC-SVG-20010904/DTD/svg10.dtd">
<svg class="Qr-item-svg" width="100%" height="100%" viewBox="-5 -5 35 35" fill="white" xmlns="http://www.w3.org/2000/svg" xmlns:xlink="http://www.w3.org/1999/xlink"><circle cx="8.5" cy="0.5" r="0.3795310356652949" fill="#8ED1FC"></circle><circle cx="12.5" cy="1" r="0.49319615912208503" fill="#FFFFFF" stroke="#8ED1FC" stroke-width="0.36243364197530864"></circle><circle cx="13.5" cy="0.5" r="0.2734803669410151" fill="#8ED1FC"></circle><circle cx="16.5" cy="1" r="0.5137446416323731" fill="#FFFFFF" stroke="#8ED1FC" stroke-width="0.37958230452674896"></circle><circle r="0.39667031035665296" fill="#8ED1FC" cx="9.5" cy="1.5"></circle><circle cx="11.5" cy="3" r="0.513090920781893" fill="#FFFFFF" stroke="#8ED1FC" stroke-width="0.39537620027434844"></circle><circle fill="#8ED1FC" cx="12.5" cy="2.5" r="0.2655724879972565"></circle><circle cx="3.5" cy="3.5" r="1.5" fill="#0693E3"></circle><circle r="3" fill="none" cx="3.5" cy="3.5" stroke-width="1" stroke="#0693E3"></circle><circle fill="#FFFFFF" cx="14" cy="3.5" r="0.4881622942386831" stroke="#8ED1FC" stroke-width="0.38645181755829905"></circle><circle fill="#0693E3" cx="21.5" cy="3.5" r="1.5"></circle><circle cx="21.5" cy="3.5" r="3" fill="none" stroke="#0693E3" stroke-width="1"></circle><circle cx="15.5" cy="5" r="0.48719200102880655" fill="#FFFFFF" stroke="#8ED1FC" stroke-width="0.3666941015089163"></circle><circle r="0.43931862997256516" fill="#8ED1FC" cx="16.5" cy="4.5"></circle><circle cx="12.5" cy="6" r="0.492713048696845" fill="#FFFFFF" stroke="#8ED1FC" stroke-width="0.36770558984910834"></circle><circle cx="13.5" cy="5.5" r="0.4884002057613169" fill="#8ED1FC"></circle><circle cx="8.5" cy="7" r="0.5161758401920439" fill="#FFFFFF" stroke="#8ED1FC" stroke-width="0.3896445473251029"></circle><circle cx="10.5" cy="7" r="0.4904843964334705" fill="#FFFFFF" stroke="#8ED1FC" stroke-width="0.38474982853223594"></circle><circle cx="12" cy="7.5" r="0.4934462877229081" fill="#FFFFFF" stroke="#8ED1FC" stroke-width="0.38359053497942386"></circle><circle cx="0.5" cy="8.5" r="0.46485768175582987" fill="#8ED1FC"></circle><circle r="0.5138256601508916" fill="#FFFFFF" cx="4" cy="8.5" stroke="#8ED1FC" stroke-width="0.3824248971193416"></circle><circle r="0.5030261917009602" fill="#FFFFFF" stroke="#8ED1FC" stroke-width="0.3857400548696845" cx="6" cy="8.5"></circle><circle r="0.48102066186556924" fill="#FFFFFF" cx="10.5" cy="9" stroke="#8ED1FC" stroke-width="0.36699365569272974"></circle><circle r="0.4991623799725652" fill="#FFFFFF" cx="13.5" cy="9" stroke="#8ED1FC" stroke-width="0.3958897462277092"></circle><circle cx="14.5" cy="8.5" r="0.3686406893004115" fill="#8ED1FC"></circle><circle r="0.4792155349794239" fill="#FFFFFF" stroke="#8ED1FC" stroke-width="0.3754055212620028" cx="20.5" cy="9"></circle><circle r="0.34503815157750345" fill="#8ED1FC" cx="24.5" cy="8.5"></circle><circle r="0.5051367455418382" fill="#FFFFFF" stroke="#8ED1FC" stroke-width="0.36994907407407407" cx="17" cy="9.5"></circle><circle cx="21.5" cy="10" r="0.509713005829904" fill="#FFFFFF" stroke="#8ED1FC" stroke-width="0.3809866255144033"></circle><circle r="0.47667352537722907" fill="#FFFFFF" cx="23.5" cy="10" stroke="#8ED1FC" stroke-width="0.3808204732510288"></circle><circle r="0.47685163751714676" fill="#FFFFFF" stroke="#8ED1FC" stroke-width="0.3861172839506173" cx="0.5" cy="11"></circle><circle r="0.4919296553497942" fill="#FFFFFF" stroke="#8ED1FC" stroke-width="0.3786323731138546" cx="3.5" cy="11"></circle><circle cx="5" cy="10.5" r="0.5101939729080933" fill="#FFFFFF" stroke="#8ED1FC" stroke-width="0.39976646090534984"></circle><circle r="0.5203821587791495" fill="#FFFFFF" stroke="#8ED1FC" stroke-width="0.368019890260631" cx="7" cy="10.5"></circle><circle cx="10.5" cy="10.5" r="0.4687349965706447" fill="#8ED1FC"></circle><circle r="0.47042181069958844" fill="#8ED1FC" cx="13.5" cy="10.5"></circle><circle cx="5.5" cy="11.5" r="0.2616941015089163" fill="#8ED1FC"></circle><circle r="0.32252764917695476" fill="#8ED1FC" cx="11.5" cy="11.5"></circle><circle r="0.503070987654321" fill="#FFFFFF" stroke="#8ED1FC" stroke-width="0.39905778463648833" cx="14.5" cy="12"></circle><circle r="0.28067343964334707" fill="#8ED1FC" cx="15.5" cy="11.5"></circle><circle r="0.49307291666666664" fill="#FFFFFF" stroke="#8ED1FC" stroke-width="0.36541117969821674" cx="0.5" cy="13"></circle><circle r="0.5175130744170097" fill="#FFFFFF" stroke="#8ED1FC" stroke-width="0.37973696844993143" cx="3.5" cy="13"></circle><circle cx="6.5" cy="12.5" r="0.44332025891632376" fill="#8ED1FC"></circle><circle r="0.5157325960219479" fill="#FFFFFF" stroke="#8ED1FC" stroke-width="0.37155332647462275" cx="10" cy="12.5"></circle><circle cx="14" cy="12.5" r="0.4996892146776406" fill="#FFFFFF" stroke="#8ED1FC" stroke-width="0.39596141975308646"></circle><circle cx="16.5" cy="12.5" r="0.38243848593964336" fill="#8ED1FC"></circle><circle r="0.45335219478738" fill="#8ED1FC" cx="19.5" cy="12.5"></circle><circle r="0.4867382544581619" fill="#FFFFFF" cx="22.5" cy="13" stroke="#8ED1FC" stroke-width="0.39045661865569276"></circle><circle cx="24.5" cy="13" r="0.4993392061042524" fill="#FFFFFF" stroke="#8ED1FC" stroke-width="0.39161762688614543"></circle><circle r="0.514957561728395" fill="#FFFFFF" stroke="#8ED1FC" stroke-width="0.3646781550068587" cx="18.5" cy="14"></circle><circle cx="20.5" cy="14" r="0.4881067815500686" fill="#FFFFFF" stroke="#8ED1FC" stroke-width="0.37339300411522636"></circle><circle cx="24" cy="13.5" r="0.5219654492455419" fill="#FFFFFF" stroke="#8ED1FC" stroke-width="0.3889675925925926"></circle><circle cx="0.5" cy="15" r="0.5200394375857339" fill="#FFFFFF" stroke="#8ED1FC" stroke-width="0.3779000342935528"></circle><circle cx="4.5" cy="15" r="0.4958397633744856" fill="#FFFFFF" stroke="#8ED1FC" stroke-width="0.3929641632373114"></circle><circle cx="6.5" cy="14.5" r="0.30084447873799725" fill="#8ED1FC"></circle><circle r="0.5061803412208505" fill="#FFFFFF" cx="9.5" cy="15" stroke="#8ED1FC" stroke-width="0.3751358024691358"></circle><circle cx="17" cy="14.5" r="0.5026478909465021" fill="#FFFFFF" stroke="#8ED1FC" stroke-width="0.3708798010973937"></circle><circle cx="20" cy="14.5" r="0.47685356652949246" fill="#FFFFFF" stroke="#8ED1FC" stroke-width="0.36047067901234564"></circle><circle cx="22" cy="14.5" r="0.5077979252400548" fill="#FFFFFF" stroke="#8ED1FC" stroke-width="0.37125497256515777"></circle><circle cx="3" cy="15.5" r="0.5083470507544582" fill="#FFFFFF" stroke="#8ED1FC" stroke-width="0.3771881001371742"></circle><circle cx="7.5" cy="15.5" r="0.28182334533607684" fill="#8ED1FC"></circle><circle cx="11.5" cy="16" r="0.47730388374485594" fill="#FFFFFF" stroke="#8ED1FC" stroke-width="0.39119101508916326"></circle><circle cx="23.5" cy="15.5" r="0.3997267232510288" fill="#8ED1FC"></circle><circle cx="1" cy="16.5" r="0.4826232424554184" fill="#FFFFFF" stroke="#8ED1FC" stroke-width="0.3714753086419753"></circle><circle cx="6.5" cy="16.5" r="0.37686578360768175" fill="#8ED1FC"></circle><circle r="0.43480581275720165" fill="#8ED1FC" cx="13.5" cy="16.5"></circle><circle cx="16.5" cy="17" r="0.5099560613854596" fill="#FFFFFF" stroke="#8ED1FC" stroke-width="0.38951440329218107"></circle><circle cx="18" cy="16.5" r="0.47739733367626885" fill="#FFFFFF" stroke="#8ED1FC" stroke-width="0.3665332647462277"></circle><circle r="0.49293531378600824" fill="#FFFFFF" stroke="#8ED1FC" stroke-width="0.38153566529492455" cx="20" cy="16.5"></circle><circle r="0.4914585476680384" fill="#FFFFFF" cx="12.5" cy="18" stroke="#8ED1FC" stroke-width="0.39321433470507544"></circle><circle cx="14.5" cy="17.5" r="0.35536694101508914" fill="#8ED1FC"></circle><circle r="0.4923994770233196" fill="#FFFFFF" cx="24.5" cy="18" stroke="#8ED1FC" stroke-width="0.3944814814814815"></circle><circle cx="8.5" cy="19" r="0.4758901320301783" fill="#FFFFFF" stroke="#8ED1FC" stroke-width="0.391747256515775"></circle><circle cx="16.5" cy="19" r="0.49143711419753083" fill="#FFFFFF" stroke="#8ED1FC" stroke-width="0.39373216735253774"></circle><circle r="0.44588370198902605" fill="#8ED1FC" cx="18.5" cy="18.5"></circle><circle cx="23.5" cy="19" r="0.5140254200960219" fill="#FFFFFF" stroke="#8ED1FC" stroke-width="0.38879869684499313"></circle><circle cx="10.5" cy="20" r="0.4788254458161865" fill="#FFFFFF" stroke="#8ED1FC" stroke-width="0.3928300754458162"></circle><circle r="0.28699309842249654" fill="#8ED1FC" cx="12.5" cy="19.5"></circle><circle r="0.5010894633058985" fill="#FFFFFF" cx="18" cy="20.5" stroke="#8ED1FC" stroke-width="0.37493141289437587"></circle><circle cx="23.5" cy="21" r="0.48019290123456787" fill="#FFFFFF" stroke="#8ED1FC" stroke-width="0.3677923525377229"></circle><circle r="1.5" fill="#0693E3" cx="3.5" cy="21.5"></circle><circle r="3" fill="none" cx="3.5" cy="21.5" stroke-width="1" stroke="#0693E3"></circle><circle cx="12.5" cy="22" r="0.4930589849108368" fill="#FFFFFF" stroke="#8ED1FC" stroke-width="0.3817477709190672"></circle><circle cx="16.5" cy="22" r="0.5186822702331961" fill="#FFFFFF" stroke="#8ED1FC" stroke-width="0.3994891975308642"></circle><circle r="0.4829155949931413" fill="#FFFFFF" stroke="#8ED1FC" stroke-width="0.38681207133058987" cx="11" cy="22.5"></circle><circle cx="15" cy="22.5" r="0.5161006087105624" fill="#FFFFFF" stroke="#8ED1FC" stroke-width="0.38986213991769547"></circle><circle r="0.4769257973251029" fill="#8ED1FC" cx="9.5" cy="23.5"></circle><circle cx="13.5" cy="23.5" r="0.4347597307956104" fill="#8ED1FC"></circle><circle cx="15.5" cy="23.5" r="0.2596204132373114" fill="#8ED1FC"></circle><circle r="0.27278270747599453" fill="#8ED1FC" cx="8.5" cy="24.5"></circle><circle r="0.48809049211248284" fill="#8ED1FC" cx="12.5" cy="24.5"></circle><circle r="0.42750557270233197" fill="#8ED1FC" cx="24.5" cy="24.5"></circle><circle fill="#FFFFFF" stroke-width="0.41433449074074075" stroke="#8ED1FC" cx="15" cy="3" r="0.7071067811865476"></circle><circle r="1" fill="#FFFFFF" stroke="#8ED1FC" stroke-width="0.4321550925925926" cx="9.5" cy="4.5"></circle><circle cx="9.5" cy="4.5" r="0.3162712191358025" fill="#8ED1FC"></circle><circle cx="10" cy="4" r="0.7071067811865476" fill="#FFFFFF" stroke="#8ED1FC" stroke-width="0.5367546296296296"></circle><circle r="1" fill="#FFFFFF" cx="15.5" cy="6.5" stroke="#8ED1FC" stroke-width="0.5061956018518519"></circle><circle cx="8.5" cy="8.5" r="1" fill="#FFFFFF" stroke="#8ED1FC" stroke-width="0.3746041666666667"></circle><circle r="0.43556562928669407" fill="#8ED1FC" cx="8.5" cy="8.5"></circle><circle r="0.7071067811865476" fill="#FFFFFF" cx="8" cy="9" stroke="#8ED1FC" stroke-width="0.4427465277777778"></circle><circle r="1" fill="#FFFFFF" cx="12.5" cy="9.5" stroke="#8ED1FC" stroke-width="0.441"></circle><circle cx="18" cy="9" r="0.7071067811865476" fill="#FFFFFF" stroke="#8ED1FC" stroke-width="0.40480439814814817"></circle><circle r="0.7071067811865476" fill="#FFFFFF" cx="8" cy="10" stroke="#8ED1FC" stroke-width="0.3812743055555556"></circle><circle cx="21.5" cy="11.5" r="1" fill="#FFFFFF" stroke="#8ED1FC" stroke-width="0.4390659722222222"></circle><circle cx="23" cy="11" r="0.7071067811865476" fill="#FFFFFF" stroke="#8ED1FC" stroke-width="0.595193287037037"></circle><circle cx="2.5" cy="13.5" r="1" fill="#FFFFFF" stroke="#8ED1FC" stroke-width="0.4503877314814815"></circle><circle r="1" fill="#FFFFFF" cx="14.5" cy="14.5" stroke="#8ED1FC" stroke-width="0.4586388888888889"></circle><circle cx="14.5" cy="14.5" r="0.3957058041838134" fill="#8ED1FC"></circle><circle r="1" fill="#FFFFFF" cx="11.5" cy="15.5" stroke="#8ED1FC" stroke-width="0.5092233796296296"></circle><circle cx="11.5" cy="15.5" r="0.2812135631001372" fill="#8ED1FC"></circle><circle r="0.7071067811865476" fill="#FFFFFF" cx="14" cy="15" stroke="#8ED1FC" stroke-width="0.36342245370370374"></circle><circle cx="4" cy="16" r="0.7071067811865476" fill="#FFFFFF" stroke="#8ED1FC" stroke-width="0.5660625"></circle><circle cx="9" cy="17" r="0.7071067811865476" fill="#FFFFFF" stroke="#8ED1FC" stroke-width="0.47258680555555554"></circle><circle cx="21" cy="17" r="0.7071067811865476" fill="#FFFFFF" stroke="#8ED1FC" stroke-width="0.5438113425925926"></circle><circle r="0.7071067811865476" fill="#FFFFFF" cx="21" cy="18" stroke="#8ED1FC" stroke-width="0.42311805555555554"></circle><circle cx="22" cy="18" r="0.7071067811865476" fill="#FFFFFF" stroke="#8ED1FC" stroke-width="0.5880914351851851"></circle><circle r="0.7071067811865476" fill="#FFFFFF" stroke="#8ED1FC" stroke-width="0.5645138888888889" cx="21" cy="19"></circle><circle r="1" fill="#FFFFFF" stroke="#8ED1FC" stroke-width="0.46568981481481486" cx="14.5" cy="20.5"></circle><circle cx="14.5" cy="20.5" r="0.3685410236625514" fill="#8ED1FC"></circle><circle cx="15" cy="20" r="0.7071067811865476" fill="#FFFFFF" stroke="#8ED1FC" stroke-width="0.37915162037037037"></circle><circle fill="#FFFFFF" cx="16" cy="20" r="0.7071067811865476" stroke="#8ED1FC" stroke-width="0.43627777777777776"></circle><circle fill="#FFFFFF" stroke-width="0.38390625" stroke="#8ED1FC" cx="9" cy="21" r="0.7071067811865476"></circle><circle cx="10" cy="21" r="0.7071067811865476" fill="#FFFFFF" stroke="#8ED1FC" stroke-width="0.379087962962963"></circle><circle cx="20" cy="21" r="0.7071067811865476" fill="#FFFFFF" stroke="#8ED1FC" stroke-width="0.36728819444444444"></circle><circle cx="20" cy="22" r="0.7071067811865476" fill="#FFFFFF" stroke="#8ED1FC" stroke-width="0.5098055555555555"></circle><circle r="1" fill="#FFFFFF" stroke="#8ED1FC" stroke-width="0.3785289351851852" cx="22.5" cy="22.5"></circle><circle r="0.7071067811865476" fill="#FFFFFF" stroke="#8ED1FC" stroke-width="0.5158159722222222" cx="12" cy="23"></circle><circle r="0.7071067811865476" fill="#FFFFFF" stroke="#8ED1FC" stroke-width="0.5419918981481482" cx="20" cy="23"></circle><circle cx="21" cy="23" r="0.7071067811865476" fill="#FFFFFF" stroke="#8ED1FC" stroke-width="0.5837013888888889"></circle><circle cx="24" cy="23" r="0.7071067811865476" fill="#FFFFFF" stroke="#8ED1FC" stroke-width="0.4460787037037037"></circle><circle cx="20" cy="24" r="0.7071067811865476" fill="#FFFFFF" stroke="#8ED1FC" stroke-width="0.33458912037037036"></circle><circle cx="21" cy="24" r="0.7071067811865476" fill="#FFFFFF" stroke="#8ED1FC" stroke-width="0.4104652777777778"></circle><circle cx="10.5" cy="1.5" r="0.45609085648148145" fill="#FFFFFF" stroke="#8ED1FC" stroke-width="0.2288827160493827"></circle><circle cx="11.5" cy="4.5" r="0.6457957175925926" fill="#FFFFFF" stroke="#8ED1FC" stroke-width="0.22481327160493828"></circle><circle cx="12.5" cy="4.5" r="0.6130902777777778" fill="#FFFFFF" stroke="#8ED1FC" stroke-width="0.2301766975308642"></circle><circle r="0.49462577160493826" fill="#FFFFFF" cx="11.5" cy="5.5" stroke="#8ED1FC" stroke-width="0.21947916666666667"></circle><circle cx="9.5" cy="7.5" r="0.5695688657407407" fill="#FFFFFF" stroke="#8ED1FC" stroke-width="0.216054012345679"></circle><circle r="0.6021199845679013" fill="#FFFFFF" stroke="#8ED1FC" stroke-width="0.3224189814814815" cx="11.5" cy="8.5"></circle><circle r="0.5100086805555556" fill="#FFFFFF" stroke="#8ED1FC" stroke-width="0.20062808641975308" cx="16.5" cy="8.5"></circle><circle cx="16.5" cy="10.5" r="0.4368325617283951" fill="#FFFFFF" stroke="#8ED1FC" stroke-width="0.2117631172839506"></circle><circle r="0.5836969521604938" fill="#FFFFFF" cx="5.5" cy="12.5" stroke="#8ED1FC" stroke-width="0.22031944444444446"></circle><circle r="0.6122077546296296" fill="#FFFFFF" stroke="#8ED1FC" stroke-width="0.32349845679012346" cx="19.5" cy="13.5"></circle><circle cx="24.5" cy="14.5" r="0.48650655864197534" fill="#FFFFFF" stroke="#8ED1FC" stroke-width="0.28603935185185186"></circle><circle cx="15.5" cy="15.5" r="0.5797453703703703" fill="#FFFFFF" stroke="#8ED1FC" stroke-width="0.15738966049382716"></circle><circle cx="15.5" cy="16.5" r="0.5008072916666667" fill="#FFFFFF" stroke="#8ED1FC" stroke-width="0.31493364197530865"></circle><circle cx="10.5" cy="17.5" r="0.4840258487654321" fill="#FFFFFF" stroke="#8ED1FC" stroke-width="0.1875733024691358"></circle><circle r="0.43291377314814816" fill="#FFFFFF" cx="23.5" cy="17.5" stroke="#8ED1FC" stroke-width="0.21284104938271606"></circle><circle cx="21.5" cy="21.5" r="0.5520283564814815" fill="#FFFFFF" stroke="#8ED1FC" stroke-width="0.2006327160493827"></circle><circle r="0.5123167438271605" fill="#FFFFFF" stroke="#8ED1FC" stroke-width="0.2744652777777778" cx="17.5" cy="22.5"></circle><circle r="0.614357638888889" fill="#FFFFFF" stroke="#8ED1FC" stroke-width="0.30035725308641975" cx="18.5" cy="24.5"></circle></svg>